<svg xmlns="http://www.w3.org/2000/svg" viewBox="0 0 54.86 48"><defs><style>.cls-1{fill:#fff;}</style></defs><g id="Layer_2" data-name="Layer 2"><g id="Layer_1-2" data-name="Layer 1"><path class="cls-1" d="M54.29,41.94,30.79,2A3.88,3.88,0,0,0,25.5.51,4,4,0,0,0,24.07,2L.56,41.94A4,4,0,0,0,3.92,48h47A4,4,0,0,0,54.29,41.94Zm-2.94,2.37a.61.61,0,0,1-.19.2.32.32,0,0,1-.23.06h-47a.32.32,0,0,1-.23-.06.49.49,0,0,1-.18-.2.6.6,0,0,1,0-.63L27,3.68a.47.47,0,0,1,.18-.19.43.43,0,0,1,.44,0,.47.47,0,0,1,.18.19l23.51,40A.62.62,0,0,1,51.35,44.31Z"/><path class="cls-1" d="M25.54,29.15a1.89,1.89,0,0,0,3.77,0l1.2-12a3.53,3.53,0,0,0,0-.65,3.1,3.1,0,1,0-6.17.65Z"/><path class="cls-1" d="M27.43,34.29a3.43,3.43,0,1,0,3.43,3.43A3.43,3.43,0,0,0,27.43,34.29Z"/></g></g></svg>