<svg xmlns="http://www.w3.org/2000/svg" xmlns:xlink="http://www.w3.org/1999/xlink" viewBox="0 0 153 133.23"><defs><style>.cls-1{fill:#2c2c2c;}.cls-2{fill:url(#linear-gradient);}</style><linearGradient id="linear-gradient" x1="27.2" y1="-10.31" x2="136.11" y2="98.61" gradientUnits="userSpaceOnUse"><stop offset="0" stop-color="#ffad00"/><stop offset="1" stop-color="#008ecc"/></linearGradient></defs><g id="Layer_2" data-name="Layer 2"><g id="Layer_1-2" data-name="Layer 1"><path class="cls-1" d="M9.7,45.13a2.55,2.55,0,0,1,.87-.13c10.75,0,21.49,0,32.24,0a11.05,11.05,0,0,1,4.41.72,13.69,13.69,0,0,1,5.53,3.46,75.55,75.55,0,0,0,6,5.76,12.21,12.21,0,0,0,7.64,2.8c10.67,0,21.34,0,32,0a18.18,18.18,0,0,1,4.81.78,11.75,11.75,0,0,1,5.2,3.3c8.79,8.71,17.51,17.51,26.31,26.23a4.26,4.26,0,0,1-.92,7,8.13,8.13,0,0,1-2.38.48,4.15,4.15,0,0,0-2.68,6.72c.26.31.53.61.82.9,3.82,3.83,7.68,7.61,11.44,11.49a11,11,0,0,1,.71,14.26,10.62,10.62,0,0,1-8.64,4.31c-5.21.05-10.43,0-15.64,0-.38,0-.76,0-1.14,0q-17.93,0-35.84,0A13.74,13.74,0,0,1,70.3,129q-10.61-10.59-21.19-21.2a14.09,14.09,0,0,0-10.71-4.44c-3,.07-5.92,0-8.88,0a13.33,13.33,0,0,1-8.06-2.59,28,28,0,0,1-3.11-2.86L7.53,87.09c-.14-.13-.3-.24-.44-.36-1.17-1.39-2.56-2.56-3.78-3.9a22.55,22.55,0,0,1-2.2-2.28A5.39,5.39,0,0,1,.5,75a5.2,5.2,0,0,1,4.69-3.25,5.79,5.79,0,0,0,5.17-3,5.47,5.47,0,0,0-1-6.59c-1.2-1.26-2.45-2.46-3.67-3.7A7.8,7.8,0,0,1,7,46.17,9.07,9.07,0,0,1,9.7,45.13Z"/><path class="cls-2" d="M18.7.13A2.55,2.55,0,0,1,19.57,0C30.32,0,41.06,0,51.81,0a11.05,11.05,0,0,1,4.41.72,13.69,13.69,0,0,1,5.53,3.46,75.55,75.55,0,0,0,6,5.76,12.21,12.21,0,0,0,7.64,2.8c10.67,0,21.34,0,32,0a18.18,18.18,0,0,1,4.81.78,11.75,11.75,0,0,1,5.2,3.3c8.79,8.71,17.51,17.51,26.31,26.23a4.26,4.26,0,0,1-.92,7,8.13,8.13,0,0,1-2.38.48,4.15,4.15,0,0,0-2.68,6.72c.26.31.53.61.82.9,3.82,3.83,7.68,7.61,11.44,11.49a11,11,0,0,1,.71,14.26,10.62,10.62,0,0,1-8.64,4.31c-5.21,0-10.43,0-15.64,0-.38,0-.76,0-1.14,0q-17.93,0-35.84,0A13.74,13.74,0,0,1,79.3,84Q68.7,73.41,58.11,62.8A14.09,14.09,0,0,0,47.4,58.36c-3,.07-5.92,0-8.88,0a13.33,13.33,0,0,1-8.06-2.59,28,28,0,0,1-3.11-2.86L16.53,42.09c-.14-.13-.3-.24-.44-.36-1.17-1.39-2.56-2.56-3.78-3.9a22.55,22.55,0,0,1-2.2-2.28A5.39,5.39,0,0,1,9.5,30a5.2,5.2,0,0,1,4.69-3.25,5.79,5.79,0,0,0,5.17-3,5.47,5.47,0,0,0-1-6.59c-1.2-1.26-2.45-2.46-3.67-3.7A7.8,7.8,0,0,1,16,1.17,9.07,9.07,0,0,1,18.7.13Z"/></g></g></svg>