<svg xmlns="http://www.w3.org/2000/svg" viewBox="0 0 66.66 48"><defs><style>.cls-1{fill:#fff;}</style></defs><g id="Layer_2" data-name="Layer 2"><g id="Layer_1-2" data-name="Layer 1"><path class="cls-1" d="M28,38.62H41.29V29.38H2.73c0,2-.13,4,0,5.93a3.82,3.82,0,0,0,3.75,3.34c1,.05,1.54.61,1.5,1.42a1.39,1.39,0,0,1-1.58,1.26A6.66,6.66,0,0,1,0,34.7c0-7.64,0-15.28,0-22.92,0-1.71,0-3.42,0-5.13A6.66,6.66,0,0,1,6.67,0H37.34A6.62,6.62,0,0,1,44,6.65c0,1.75,0,3.5,0,5.35h.76c3.6,0,7.2,0,10.8,0a2,2,0,0,1,1.76.86c3,3.85,6,7.68,8.93,11.53a2.1,2.1,0,0,1,.4,1.15c0,4.76,0,9.51,0,14.26,0,1-.51,1.54-1.57,1.54H61.24a8.09,8.09,0,0,1-3.62,5.37A7.8,7.8,0,0,1,53,48a8.12,8.12,0,0,1-7.59-6.59H27.91a8.13,8.13,0,0,1-4.29,5.76,7.78,7.78,0,0,1-5.38.68,8,8,0,0,1,.69-15.74A8.11,8.11,0,0,1,28,38.62Zm13.38-12V7A4,4,0,0,0,37,2.67H7A4,4,0,0,0,2.68,7c0,6.31,0,12.62,0,18.92v.74Zm2.73-12V38.61h1.35a8.06,8.06,0,0,1,15.84,0H64a2.27,2.27,0,0,0,0-.3c0-4,0-8.09,0-12.13a1.32,1.32,0,0,0-.3-.77c-2.47-3.2-5-6.36-7.41-9.59a2.56,2.56,0,0,0-2.36-1.17C50.65,14.72,47.38,14.67,44.06,14.67Zm9.28,30.64A5.32,5.32,0,1,0,48,40,5.31,5.31,0,0,0,53.34,45.31ZM25.33,40A5.33,5.33,0,1,0,20,45.32,5.33,5.33,0,0,0,25.33,40Z"/><path class="cls-1" d="M54,28c-1.93,0-3.86,0-5.79,0a1.35,1.35,0,0,1-1.55-1.54q0-3.79,0-7.59a1.35,1.35,0,0,1,1.5-1.53c1.67,0,3.33,0,5,0a1.94,1.94,0,0,1,1.26.57c2.22,2.6,4.39,5.23,6.58,7.86a1.25,1.25,0,0,1,.21,1.42,1.3,1.3,0,0,1-1.27.8H54Zm3-2.69c0-.13-.06-.2-.1-.24q-2-2.41-4-4.8c-.08-.1-.2-.23-.3-.23-1.08,0-2.15,0-3.22,0V25.3Z"/></g></g></svg>