<svg xmlns="http://www.w3.org/2000/svg" viewBox="0 0 48 48"><defs><style>.cls-1{fill:#008ecc;}</style></defs><g id="Layer_2" data-name="Layer 2"><g id="Layer_1-2" data-name="Layer 1"><path class="cls-1" d="M0,24A24,24,0,1,1,24,48,24,24,0,0,1,0,24ZM22.5,3.23c-2,.61-4,2.46-5.66,5.57A23.37,23.37,0,0,0,15.43,12H22.5ZM12.27,12a27.8,27.8,0,0,1,1.92-4.62A21.09,21.09,0,0,1,16,4.58,21.11,21.11,0,0,0,6.77,12ZM10.52,22.5a41.33,41.33,0,0,1,.94-7.5H5a21,21,0,0,0-2,7.5Zm4-7.5a37.18,37.18,0,0,0-1,7.5h9V15Zm11,0v7.5h9a37.18,37.18,0,0,0-1-7.5Zm-12,10.5a37.18,37.18,0,0,0,1,7.5h8V25.5Zm12,0V33h8a37,37,0,0,0,1-7.5ZM15.43,36a24.26,24.26,0,0,0,1.41,3.2c1.65,3.11,3.65,4.95,5.66,5.57V36ZM16,43.42a21.09,21.09,0,0,1-1.79-2.8A27.8,27.8,0,0,1,12.27,36H6.77A21.11,21.11,0,0,0,16,43.42ZM11.46,33a41.25,41.25,0,0,1-.94-7.5H3.05A21,21,0,0,0,5,33ZM32,43.42A21.11,21.11,0,0,0,41.23,36h-5.5a27.8,27.8,0,0,1-1.92,4.62A21.09,21.09,0,0,1,32,43.42ZM25.5,36v8.77c2-.61,4-2.46,5.66-5.57A24.26,24.26,0,0,0,32.57,36Zm11-3H43a21,21,0,0,0,2-7.5H37.48A41.25,41.25,0,0,1,36.54,33ZM45,22.5A21,21,0,0,0,43,15H36.54a41.33,41.33,0,0,1,.94,7.5ZM33.81,7.38A27.37,27.37,0,0,1,35.73,12h5.51A21.2,21.2,0,0,0,32,4.58,21.93,21.93,0,0,1,33.81,7.38ZM32.56,12a22.16,22.16,0,0,0-1.4-3.2c-1.65-3.11-3.65-5-5.66-5.57V12Z"/></g></g></svg>