<svg xmlns="http://www.w3.org/2000/svg" viewBox="0 0 62.6 48"><defs><style>.cls-1{fill:#ffad00;}</style></defs><g id="Layer_2" data-name="Layer 2"><g id="Layer_1-2" data-name="Layer 1"><path class="cls-1" d="M62.22,30.37a4.67,4.67,0,0,0-2.68-2.61,7.17,7.17,0,0,0-5,.44L42.61,34a5.26,5.26,0,0,0-.62-.71,5.59,5.59,0,0,0-3.83-1.43c-.13,0-5.25.19-8.28,0a18.55,18.55,0,0,1-6.29-2.09c-.91-.42-1.86-.86-2.85-1.26C17,27,11.7,29.78,11.37,30L0,35.84l1,2L12.41,32h0c1.28-.69,5.11-2.26,7.47-1.31.93.38,1.85.81,2.74,1.22C25,33,27.29,34,29.75,34.16c3.16.19,8.28,0,8.5,0h0a3.32,3.32,0,0,1,2.2.83,3.63,3.63,0,0,1,1,2.09H28.75v2.25h15V38.21a8.62,8.62,0,0,0-.24-2.11l12-5.87a4.83,4.83,0,0,1,3.23-.34,2.12,2.12,0,0,1,.88.61L37.29,45.68a141.16,141.16,0,0,1-15-2c-7.6-1.76-9.53-.91-10.32-.12l1.59,1.6s1.16-.91,8.22.72A149.59,149.59,0,0,0,37.5,48l.4,0L62.6,31.24Z"/><path class="cls-1" d="M37.07,11.3a9.44,9.44,0,0,0-9.44,9.44,1.13,1.13,0,0,0,2.26,0,7.18,7.18,0,1,1,14.35,0,1.13,1.13,0,0,0,2.26,0A9.44,9.44,0,0,0,37.07,11.3Z"/><path class="cls-1" d="M37,10.35a5.18,5.18,0,1,0-5.17-5.18A5.18,5.18,0,0,0,37,10.35Zm0-8.09a2.92,2.92,0,1,1-2.91,2.91A2.92,2.92,0,0,1,37,2.26Z"/><path class="cls-1" d="M20.16,21.86a1.12,1.12,0,0,0,1.13-1.13A5.74,5.74,0,0,1,27,15a1.13,1.13,0,0,0,0-2.26,8,8,0,0,0-8,8A1.13,1.13,0,0,0,20.16,21.86Z"/><path class="cls-1" d="M27,12.34a4.47,4.47,0,1,0-4.48-4.47A4.47,4.47,0,0,0,27,12.34Zm0-6.68a2.22,2.22,0,1,1-2.22,2.21A2.21,2.21,0,0,1,27,5.66Z"/><path class="cls-1" d="M45.76,13.87A1.14,1.14,0,0,0,46.89,15a5.74,5.74,0,0,1,5.74,5.73,1.13,1.13,0,1,0,2.25,0,8,8,0,0,0-8-8A1.14,1.14,0,0,0,45.76,13.87Z"/><path class="cls-1" d="M47,12.34a4.47,4.47,0,1,0-4.47-4.47A4.47,4.47,0,0,0,47,12.34Zm0-6.68a2.22,2.22,0,1,1-2.21,2.21A2.21,2.21,0,0,1,47,5.66Z"/></g></g></svg>