<svg xmlns="http://www.w3.org/2000/svg" viewBox="0 0 48.14 48"><defs><style>.cls-1{fill:#008ecc;}</style></defs><g id="Layer_2" data-name="Layer 2"><g id="Layer_1-2" data-name="Layer 1"><path class="cls-1" d="M24.12,12a7.86,7.86,0,0,0-5.84,13.1l0,0,.09.06c.22.23.45.46.69.67a.89.89,0,0,0,.25.14,6.47,6.47,0,0,1,2,4.5h1.52a8.31,8.31,0,0,0-3.45-6.45,6.32,6.32,0,1,1,9.43.07,8.3,8.3,0,0,0-3.36,6.38H27A6.51,6.51,0,0,1,29.05,26a1.2,1.2,0,0,0,.21-.13,7,7,0,0,0,.55-.54l.19-.13,0-.05A7.86,7.86,0,0,0,24.12,12Z"/><rect class="cls-1" x="21.43" y="31.82" width="5.41" height="1.52"/><rect class="cls-1" x="22.06" y="34.42" width="4.14" height="1.52"/><path class="cls-1" d="M20,6.33l3.41-3.41V9.05h1.51V2.91l3.41,3.42a.76.76,0,0,0,1.07,0,.76.76,0,0,0,0-1.08L24.12,0,18.88,5.25a.76.76,0,0,0,0,1.08A.75.75,0,0,0,20,6.33Z"/><path class="cls-1" d="M2.91,24.67H9V23.14H2.9l3.41-3.41a.76.76,0,0,0,0-1.08.75.75,0,0,0-1.07,0L0,23.9l5.24,5.26a.77.77,0,0,0,.53.22.79.79,0,0,0,.54-.22.76.76,0,0,0,0-1.08Z"/><path class="cls-1" d="M42.9,18.65a.75.75,0,0,0-1.07,0,.76.76,0,0,0,0,1.08l3.4,3.41H39.12v1.52h6.11l-3.4,3.42a.76.76,0,0,0,0,1.08.76.76,0,0,0,1.07,0l5.24-5.26Z"/><path class="cls-1" d="M14.49,39.33H9.67L14,35l-1.08-1.07L8.6,38.25V33.42a.76.76,0,1,0-1.52,0v7.43h7.41a.76.76,0,0,0,0-1.52Z"/><path class="cls-1" d="M40.25,32.71a.76.76,0,0,0-.76.76V38.3L35.17,34,34.09,35l4.33,4.34H33.6a.76.76,0,1,0,0,1.52H41V33.47A.76.76,0,0,0,40.25,32.71Z"/><path class="cls-1" d="M14.49,6.87H7.08v7.42a.76.76,0,1,0,1.52,0V9.47l4.32,4.33L14,12.73,9.67,8.39h4.82a.76.76,0,0,0,0-1.52Z"/><path class="cls-1" d="M33.6,8.44h4.81l-4.32,4.33,1.08,1.08,4.32-4.34v4.83a.76.76,0,0,0,1.52,0V6.91H33.6a.77.77,0,0,0,0,1.53Z"/><path class="cls-1" d="M28.28,41.67l-3.4,3.41V39H23.36v6.14L20,41.67a.75.75,0,0,0-1.07,0,.76.76,0,0,0,0,1.08L24.12,48l5.23-5.25a.76.76,0,0,0,0-1.08A.75.75,0,0,0,28.28,41.67Z"/></g></g></svg>