<svg xmlns="http://www.w3.org/2000/svg" viewBox="0 0 52.44 48"><defs><style>.cls-1{fill:#fff;}</style></defs><g id="Layer_2" data-name="Layer 2"><g id="Layer_1-2" data-name="Layer 1"><path class="cls-1" d="M11.07,11.58A11.06,11.06,0,0,0,0,22.65C0,31,11.07,43.21,11.07,43.21S22.14,31,22.14,22.65A11.06,11.06,0,0,0,11.07,11.58Zm0,15a4,4,0,1,1,3.95-4A4,4,0,0,1,11.07,26.6Z"/><path class="cls-1" d="M47.36,0a5.07,5.07,0,0,0-5.07,5.08c0,3.81,5.07,9.43,5.07,9.43s5.08-5.62,5.08-9.43A5.07,5.07,0,0,0,47.36,0Zm0,6.89a1.82,1.82,0,1,1,1.82-1.81A1.81,1.81,0,0,1,47.36,6.89Z"/><path class="cls-1" d="M11.07,47.31h0a1.06,1.06,0,0,1,.62-1.37L39.48,35.57A1.06,1.06,0,0,0,40,34L32.67,22.33a1.05,1.05,0,0,1,.61-1.58l12.77-3.66a1.06,1.06,0,0,1,1.31.73h0a1.05,1.05,0,0,1-.72,1.31L36.57,22a1.05,1.05,0,0,0-.6,1.58l7.21,11.5a1.06,1.06,0,0,1-.52,1.56L12.43,47.93A1.05,1.05,0,0,1,11.07,47.31Z"/></g></g></svg>