<svg xmlns="http://www.w3.org/2000/svg" viewBox="0 0 79.31 96"><defs><style>.cls-1,.cls-2{fill:#fff;}.cls-1{fill-rule:evenodd;}</style></defs><g id="Layer_2" data-name="Layer 2"><g id="Layer_1-2" data-name="Layer 1"><path class="cls-1" d="M29.22,70.06l-7.5-7.51a1.09,1.09,0,0,0-.78-.31l-10.56.15a1.12,1.12,0,0,0-.78.34L.29,72.61a1.09,1.09,0,0,0,.09,1.57l3.44,2.94a1.07,1.07,0,0,0,1.32,0Q13.45,71.38,21,70.31h.1q4-.28,8.16-.24"/><path class="cls-1" d="M31.22,72.69c-2.53-.08-7.61,0-9.94.19A33.93,33.93,0,0,0,7.67,78.59a1.09,1.09,0,0,0-.11,1.73L17.68,89a1.08,1.08,0,0,0,1.69-.37q5.2-11.46,11.85-15.91"/><path class="cls-1" d="M31.8,75.46c-4.94,3.77-8.41,10.35-10.64,15.48h0a1.09,1.09,0,0,0,.29,1.26l4.15,3.54a1.07,1.07,0,0,0,1.41,0L39.52,84.81a1.13,1.13,0,0,1,.68-.27l10.29-.33a1.08,1.08,0,0,0,1-1.2c-.22-1.89-.38-3.68-.47-5.37C51,76.88,51,76.37,51,75.8a1.07,1.07,0,0,0-.89-1.1l-1.73-.31c-2.78-.45-5.57-.84-8.38-1.12a10.73,10.73,0,0,0-8.18,2.19"/><path class="cls-1" d="M53.56,75.33a77.58,77.58,0,0,0,.6,7.78,1.09,1.09,0,0,0,1.11,1l14-.46a1.07,1.07,0,0,0,.78-.37l9-10.31a1.08,1.08,0,0,0-.26-1.64l-6.85-4.12a1.09,1.09,0,0,0-1.26.1q-10.56,8.86-17.06,8.08Z"/><path class="cls-1" d="M54.08,72.78c4.15.39,9.67-3.28,13.64-6.45a1.09,1.09,0,0,0-.12-1.78L59.53,59.7a1.07,1.07,0,0,0-1.2,0l-.28.21c-3.4,2.52-4.32,8.05-4.47,12.76Z"/><path class="cls-1" d="M51,72.22c.23-5.44,1.4-10.4,4.42-13.41a1.08,1.08,0,0,0-.19-1.7l-.57-.34a1.07,1.07,0,0,0-1.35.19c-.26.28-.52.56-.79.83L41.28,69a1.08,1.08,0,0,0,.63,1.84c3,.35,6.08.81,9.09,1.35"/><path class="cls-1" d="M50.68,21.79a22.38,22.38,0,0,0-14.22-6.51,1.6,1.6,0,0,0-1.72,1.6v4.33a1.59,1.59,0,0,0,1.43,1.59A15,15,0,0,1,49.68,36.31a1.59,1.59,0,0,0,1.59,1.43H55.6A1.61,1.61,0,0,0,57.2,36a22.49,22.49,0,0,0-6.52-14.22"/><path class="cls-1" d="M34.74,6a1.6,1.6,0,0,0,1.52,1.6A30.06,30.06,0,0,1,64.85,36.21a1.6,1.6,0,0,0,1.59,1.53h4.43a1.61,1.61,0,0,0,1.61-1.67A37.71,37.71,0,0,0,36.4,0a1.6,1.6,0,0,0-1.66,1.61Z"/><path class="cls-1" d="M45.35,48.35A15,15,0,1,1,26.64,25.1a1,1,0,0,0,.47-.84V18a1,1,0,0,0-1.39-.91,22.55,22.55,0,0,0-6.93,36.62l3.66,3.66L34.18,69.08a.78.78,0,0,0,1.11,0c5.43-5.39,11.29-10.69,16.34-16.4a20.92,20.92,0,0,0,1.62-2.06,22.14,22.14,0,0,0,2.38-4.41.62.62,0,0,0-.59-.84H48a.62.62,0,0,0-.53.29c-.23.36-.47.72-.73,1.06l0,0-1,1.28Z"/><circle class="cls-2" cx="34.74" cy="37.75" r="5.46"/></g></g></svg>