<svg xmlns="http://www.w3.org/2000/svg" viewBox="0 0 134.28 48"><defs><style>.cls-1,.cls-3{fill:#2c2c2c;}.cls-1,.cls-2{fill-rule:evenodd;}.cls-2,.cls-4{fill:#ffad00;}</style></defs><g id="Layer_2" data-name="Layer 2"><g id="Calque_1" data-name="Calque 1"><path class="cls-1" d="M109.24,35l-3.75-3.75a.51.51,0,0,0-.39-.16l-5.28.08a.52.52,0,0,0-.39.17l-4.65,4.94a.54.54,0,0,0,0,.78l1.72,1.47a.54.54,0,0,0,.66,0,18.48,18.48,0,0,1,7.91-3.43h0q2-.13,4.08-.12"/><path class="cls-1" d="M110.24,36.34c-1.26,0-3.81,0-5,.1a16.92,16.92,0,0,0-6.81,2.86.55.55,0,0,0,0,.86l5.06,4.33a.54.54,0,0,0,.84-.19q2.61-5.73,5.93-8"/><path class="cls-1" d="M110.53,37.73c-2.47,1.88-4.21,5.17-5.32,7.74h0a.56.56,0,0,0,.15.63l2.07,1.77a.56.56,0,0,0,.71,0l6.25-5.46a.57.57,0,0,1,.34-.14l5.15-.16a.55.55,0,0,0,.52-.61c-.12-.94-.2-1.83-.24-2.68,0-.38,0-.63,0-.92a.54.54,0,0,0-.44-.55l-.87-.15c-1.39-.23-2.79-.42-4.19-.57a5.39,5.39,0,0,0-4.09,1.1"/><path class="cls-1" d="M121.41,37.67a38.47,38.47,0,0,0,.3,3.88.54.54,0,0,0,.55.48l7-.23a.55.55,0,0,0,.4-.18l4.49-5.16a.54.54,0,0,0-.13-.82l-3.42-2.06a.54.54,0,0,0-.63.05q-5.28,4.42-8.53,4Z"/><path class="cls-1" d="M121.67,36.39c2.08.19,4.84-1.64,6.82-3.23a.53.53,0,0,0-.06-.88l-4-2.43a.54.54,0,0,0-.6,0l-.14.1c-1.7,1.26-2.16,4-2.24,6.38Z"/><path class="cls-1" d="M120.13,36.11c.11-2.72.7-5.2,2.21-6.7a.55.55,0,0,0-.09-.86l-.29-.17a.53.53,0,0,0-.67.1c-.13.14-.26.28-.4.41l-5.62,5.63a.53.53,0,0,0,.32.91c1.52.18,3,.41,4.54.68"/><path class="cls-2" d="M120,10.9a11.19,11.19,0,0,0-7.11-3.26.8.8,0,0,0-.86.8V10.6a.8.8,0,0,0,.72.8,7.49,7.49,0,0,1,6.75,6.75.8.8,0,0,0,.79.72h2.17a.8.8,0,0,0,.8-.86A11.19,11.19,0,0,0,120,10.9"/><path class="cls-2" d="M112,3a.8.8,0,0,0,.76.79,15,15,0,0,1,14.3,14.3.8.8,0,0,0,.79.76h2.22a.8.8,0,0,0,.8-.83,18.83,18.83,0,0,0-18-18,.8.8,0,0,0-.83.8Z"/><path class="cls-1" d="M117.31,24.18a7.51,7.51,0,0,1-11.14-10A7.82,7.82,0,0,1,108,12.55a.49.49,0,0,0,.24-.42V9a.5.5,0,0,0-.7-.45A10.93,10.93,0,0,0,104,10.9a11.29,11.29,0,0,0,0,15.94l1.83,1.84,5.86,5.86a.4.4,0,0,0,.56,0c2.71-2.7,5.64-5.34,8.17-8.2a11.46,11.46,0,0,0,.81-1,11.14,11.14,0,0,0,1.18-2.2.31.31,0,0,0-.29-.43h-3.51a.33.33,0,0,0-.27.15,6.18,6.18,0,0,1-.36.53l0,0-.49.64Z"/><path class="cls-3" d="M14.35,26.94h3.34a.52.52,0,0,1,.52.52v6.2a.55.55,0,0,1-.14.37,10.33,10.33,0,0,1-7.92,3.09,10,10,0,0,1-7.23-2.85A9.66,9.66,0,0,1,0,27.06,9.72,9.72,0,0,1,3,19.8a9.92,9.92,0,0,1,7.19-2.91,10.61,10.61,0,0,1,7,2.46.53.53,0,0,1,.09.71l-1.66,2.39a.51.51,0,0,1-.76.12,8,8,0,0,0-2-1.21,6.51,6.51,0,0,0-2.39-.44,5.74,5.74,0,0,0-4.2,1.7A6,6,0,0,0,4.5,27.08a6.06,6.06,0,0,0,1.64,4.43A5.28,5.28,0,0,0,10,33.18a7.74,7.74,0,0,0,3.5-.72.51.51,0,0,0,.28-.47V27.46A.52.52,0,0,1,14.35,26.94Z"/><path class="cls-3" d="M33.94,36.9H31.05a.53.53,0,0,1-.53-.53h0a.52.52,0,0,0-.86-.4,4.73,4.73,0,0,1-3.15,1.15,6,6,0,0,1-4-1.38A4.64,4.64,0,0,1,20.87,32a3.89,3.89,0,0,1,1.68-3.45,8,8,0,0,1,4.59-1.15h3.13v-.08c0-1.61-.85-2.41-2.55-2.41a7.09,7.09,0,0,0-2.3.43,8.26,8.26,0,0,0-1.66.8.51.51,0,0,1-.7-.15l-1.28-1.85a.53.53,0,0,1,.14-.73,11.21,11.21,0,0,1,6.34-1.86A7,7,0,0,1,32.73,23a5.19,5.19,0,0,1,1.74,4.34v9.07A.53.53,0,0,1,33.94,36.9Zm-3.7-5.74v-.73H27.61c-1.68,0-2.52.53-2.52,1.57a1.44,1.44,0,0,0,.61,1.25,2.89,2.89,0,0,0,1.72.43,3.05,3.05,0,0,0,2-.69A2.2,2.2,0,0,0,30.24,31.16Z"/><path class="cls-3" d="M42,36.9H38.82a.52.52,0,0,1-.52-.53V16.66a.52.52,0,0,1,.52-.52H42a.52.52,0,0,1,.52.52V36.37A.52.52,0,0,1,42,36.9Z"/><path class="cls-3" d="M46.82,19.93a2.47,2.47,0,1,1,3.49,0,2.5,2.5,0,0,1-3.49,0Zm3.32,17H47a.52.52,0,0,1-.52-.53v-14a.52.52,0,0,1,.52-.52h3.15a.52.52,0,0,1,.52.52v14A.52.52,0,0,1,50.14,36.9Z"/><path class="cls-4" d="M68.28,26.94h3.34a.52.52,0,0,1,.53.52v6.2A.51.51,0,0,1,72,34a10.29,10.29,0,0,1-7.91,3.09,10,10,0,0,1-7.23-2.85,9.66,9.66,0,0,1-2.92-7.21,9.75,9.75,0,0,1,3-7.26,9.93,9.93,0,0,1,7.19-2.91,10.62,10.62,0,0,1,7,2.46.54.54,0,0,1,.09.71l-1.66,2.39a.52.52,0,0,1-.77.12,7.68,7.68,0,0,0-2-1.21,6.43,6.43,0,0,0-2.39-.44,5.7,5.7,0,0,0-4.19,1.7,6,6,0,0,0-1.71,4.46,6.06,6.06,0,0,0,1.64,4.43A5.28,5.28,0,0,0,64,33.18a7.77,7.77,0,0,0,3.5-.72.53.53,0,0,0,.28-.47V27.46A.52.52,0,0,1,68.28,26.94Z"/><path class="cls-4" d="M90.67,29.37a7.45,7.45,0,0,1-2.27,5.51,8.35,8.35,0,0,1-11.38,0,7.41,7.41,0,0,1-2.27-5.51A7.45,7.45,0,0,1,77,23.85a8.29,8.29,0,0,1,11.38,0A7.48,7.48,0,0,1,90.67,29.37Zm-11.7,0a4.33,4.33,0,0,0,1,3,3.69,3.69,0,0,0,5.37,0,4.33,4.33,0,0,0,1-3,4.36,4.36,0,0,0-1-3,3.67,3.67,0,0,0-5.37,0A4.36,4.36,0,0,0,79,29.37Z"/><circle class="cls-4" cx="112" cy="18.87" r="2.73"/></g></g></svg>