<?xml version="1.0" encoding="utf-8"?>
<!-- Generator: Adobe Illustrator 25.1.0, SVG Export Plug-In . SVG Version: 6.00 Build 0)  -->
<svg version="1.1" id="Calque_1" xmlns="http://www.w3.org/2000/svg" xmlns:xlink="http://www.w3.org/1999/xlink" x="0px" y="0px"
	 viewBox="0 0 460.8 931" style="enable-background:new 0 0 460.8 931;" xml:space="preserve">
<style type="text/css">
	.st0{fill:#FFFFFF;}
	.st1{fill:#7F7F7F;}
</style>
<g id="Layer_2_1_">
	<g id="Layer_1-2">
		<path class="st0" d="M0,570.2v107.4c6.4-0.1,12.8-0.5,19.2-0.7V569.9C12.8,570.9,6.4,571,0,570.2z"/>
		<path class="st0" d="M440.5,531.9v144.7h17.1V535.7C452.1,532.2,446.4,531.6,440.5,531.9z"/>
		<path class="st0" d="M0,0v572.1c6.4,0.2,12.8,0.2,19.2-0.1V66c0-22.6,30.2-51,54.4-51h37.3c4.2,0,7.5,3.1,7.5,7v1.4
			c0,13,11.2,23.5,25.1,23.6h173.6c13.9,0,25.2-10.6,25.2-23.6v-1.6c0.1-3.8,3.4-6.8,7.5-6.8h36.3c24.1,0,54.4,28.4,54.4,51v470.8
			c5.7-0.2,11.4,0.2,17.1,1.2V0H0z"/>
		<path class="st0" d="M440.5,865c0,22.6-30.3,51-54.4,51H73.5c-24.1,0-54.3-28.4-54.3-51V668.4c-6.4,0.1-12.8,0.2-19.2,0.2V931
			h457.6V650.6h-17.1V865z"/>
		<path class="st1" d="M6.4,67C6.5,33.3,35.9,6,72.1,6h313.3c36.2,0,65.6,27.3,65.7,61v22h6.4V67c0-37-32.2-67-72-67H72
			C32.2,0,0,30,0,67v22h6.4V67z"/>
		<path class="st1" d="M451.1,864c-0.1,33.7-29.5,61-65.7,61H72.1c-36.2,0-65.6-27.3-65.7-61v-21H0v21c0,37,32.2,67,72,67l0,0h313.8
			c39.7,0,71.8-30,71.8-67v-21h-6.4V864z"/>
		<path class="st1" d="M451.1,838h6.4V650.6h-6.4V838z"/>
		<path class="st1" d="M451.1,676.6h6.4V535.7c-2-1.3-4.1-2.2-6.4-2.9V676.6z"/>
		<path class="st1" d="M458.2,315c1.4,0,2.5-1.1,2.5-2.4V211.4c0-1.3-1.1-2.4-2.5-2.4h-0.7V94h-6.4v443.2c2.2,0.2,4.3,0.5,6.4,0.9
			V315H458.2z"/>
		<path class="st1" d="M0,677.6c2.1,0,4.3-0.1,6.4-0.2V570.7c-2.2-0.1-4.3-0.2-6.4-0.6V677.6z"/>
		<path class="st1" d="M0,94v29h-0.7c-1.4,0-2.5,1.1-2.5,2.4l0,0v30.3c0,1.3,1.1,2.4,2.5,2.4l0,0H0v30h-0.7c-1.4,0-2.5,1.1-2.5,2.4
			l0,0v61.3c0,1.3,1.1,2.4,2.5,2.4l0,0H0v18h-0.7c-1.4,0-2.5,1.1-2.5,2.4v61.3c0,1.3,1.1,2.4,2.5,2.4c0,0,0,0,0,0H0v234.1
			c2.1,0.1,4.3,0.1,6.4,0.2V94H0z"/>
		<path class="st1" d="M0,838h6.4V668.5H0V838z"/>
		<path class="st1" d="M11.8,677.2c5-0.2,10-0.4,15-0.5v-108c-5,1-10,1.6-15,2V677.2z"/>
		<path class="st1" d="M429.6,533.2v143.4h16.1V531.9C440.5,531.5,435,532.4,429.6,533.2z"/>
		<path class="st1" d="M445.7,67.5c-0.1-31.4-27.5-56.7-61.2-56.5c0,0,0,0,0,0H72.7C39,11.1,11.7,36.6,11.8,67.9v504.3
			c5-0.1,10-0.3,15-0.5V66c0-22.6,19.7-41,44-41h37.6c4.2,0,7.5,3.1,7.5,7v1.4c0,13,11.4,23.6,25.3,23.6h174.9
			c14,0,25.3-10.6,25.3-23.6v-1.6c0.1-3.8,3.4-6.8,7.5-6.8h36.5c24.3,0,44,18.4,44,41v471.3c5.4-0.2,10.8-0.5,16.1-0.4V67.5z
			 M253.5,39h-49.4c-1.8,0-3.2-1.3-3.2-3s1.4-3,3.2-3h49.4c1.8,0,3.2,1.3,3.2,3S255.3,39,253.5,39z M277.1,43c-3.9,0-7-3.1-7-7
			s3.1-7,7-7s7,3.1,7,7S281,43,277.1,43z"/>
		<path class="st1" d="M429.6,865c0,22.6-19.7,41-44,41H70.9c-24.3,0-44-18.4-44-41V668.3c-5.6,0-10.6,0.1-15,0.1v195l0,0
			c0.1,31.4,27.5,56.7,61.2,56.6c0,0,0,0,0,0h311.8c33.7-0.1,60.9-25.6,60.9-56.9V650.6h-16.1V865z"/>
	</g>
</g>
</svg>
