<svg xmlns="http://www.w3.org/2000/svg" viewBox="0 0 432 862"><defs><style>.cls-1{fill:#fff;}.cls-2{fill:#7f7f7f;}</style></defs><g id="Layer_2" data-name="Layer 2"><g id="Layer_1-2" data-name="Layer 1"><path class="cls-1" d="M3,0V862H429V0ZM413.11,796c0,22.63-28.17,51-50.64,51h-291C49,847,20.9,818.63,20.87,796V66C20.9,43.37,49,15,71.52,15h34.75a7,7,0,0,1,7,7v1.4A23.53,23.53,0,0,0,136.66,47H298.32a23.53,23.53,0,0,0,23.44-23.6V21.83A7,7,0,0,1,328.71,15h33.76c22.47,0,50.62,28.37,50.64,51Z"/><path id="Combined_Shape" data-name="Combined Shape" class="cls-2" d="M362,862H70A67,67,0,0,1,3,795V774H9v21a61.15,61.15,0,0,0,61.15,61h291.7A61.14,61.14,0,0,0,423,795V774h6v21a66.93,66.93,0,0,1-67,67Zm-1-11H71a56.77,56.77,0,0,1-57-56.54V67.93A56.81,56.81,0,0,1,70.68,11H361a56.77,56.77,0,0,1,57,56.54V794.07A56.81,56.81,0,0,1,361.32,851ZM69,25A41.06,41.06,0,0,0,28,66V796a41.06,41.06,0,0,0,41,41H362a41.06,41.06,0,0,0,41-41V66a41.06,41.06,0,0,0-41-41H328a7,7,0,0,0-7,6.83h0V33.4A23.61,23.61,0,0,1,297.4,57H134.6A23.61,23.61,0,0,1,111,33.4h0V32a7,7,0,0,0-7-7Zm192,4a7,7,0,1,0,7,7A7,7,0,0,0,261,29Zm-68,4a3,3,0,0,0,0,6h46a3,3,0,0,0,0-6Zm87,795H152a3,3,0,0,1,0-6H280a3,3,0,0,1,0,6Zm149-59h-6V94h6V209h.64a2.36,2.36,0,0,1,2.36,2.36V312.64a2.36,2.36,0,0,1-2.36,2.36H429ZM9,769H3V338H2.36A2.36,2.36,0,0,1,0,335.64V274.36A2.36,2.36,0,0,1,2.36,272H3V254H2.36A2.36,2.36,0,0,1,0,251.64V190.36A2.36,2.36,0,0,1,2.36,188H3V158H2.36A2.36,2.36,0,0,1,0,155.64V125.36A2.36,2.36,0,0,1,2.36,123H3V94H9ZM9,89H3V67A67,67,0,0,1,70,0H362a67,67,0,0,1,67,67V89h-6V67A61.15,61.15,0,0,0,361.85,6H70.15A61.15,61.15,0,0,0,9,67Z"/></g></g></svg>