<svg xmlns="http://www.w3.org/2000/svg" viewBox="0 0 29.33 24"><defs><style>.cls-1{fill:#1a1a1a;fill-rule:evenodd;}</style></defs><g id="Layer_2" data-name="Layer 2"><g id="Layer_1-2" data-name="Layer 1"><path class="cls-1" d="M0,22.67a1.34,1.34,0,0,1,1.33-1.34H28A1.34,1.34,0,0,1,28,24H1.33A1.34,1.34,0,0,1,0,22.67ZM0,12a1.33,1.33,0,0,1,1.33-1.33H28a1.33,1.33,0,0,1,0,2.66H1.33A1.33,1.33,0,0,1,0,12ZM0,1.33A1.34,1.34,0,0,1,1.33,0H28a1.34,1.34,0,0,1,0,2.67H1.33A1.34,1.34,0,0,1,0,1.33Z"/></g></g></svg>