<svg xmlns="http://www.w3.org/2000/svg" viewBox="0 0 48.22 48"><defs><style>.cls-1{fill:#fff;}</style></defs><g id="Layer_2" data-name="Layer 2"><g id="Layer_1-2" data-name="Layer 1"><path class="cls-1" d="M30.29,41.64H29.7c-3.72,0-7.44,0-11.17,0-.49,0-.63.14-.6.62,0,.81,0,1.61,0,2.42A3.3,3.3,0,0,1,14.71,48Q13,48,11.29,48A3.29,3.29,0,0,1,8,44.68C8,43.79,8,42.9,8,42c0-.27-.07-.38-.36-.42a3.34,3.34,0,0,1-2.83-3.24v-.3c0-9.41,0-18.82,0-28.23a9.45,9.45,0,0,1,5.8-9A8.81,8.81,0,0,1,14.52,0C20.91,0,27.3,0,33.69,0a9.63,9.63,0,0,1,9.68,9.75q0,14.19,0,28.38A3.3,3.3,0,0,1,40.5,41.6c-.31.06-.31.23-.31.45,0,.84,0,1.68,0,2.52A3.28,3.28,0,0,1,36.8,48q-1.56,0-3.12,0a3.31,3.31,0,0,1-3.39-3.41C30.28,43.62,30.29,42.66,30.29,41.64ZM39.8,9.93H8.43V28.55H39.8ZM30.25,6.34V3.59H18V6.34ZM11.37,38.11a3,3,0,1,0-3-3A3,3,0,0,0,11.37,38.11Zm25.45,0a3,3,0,1,0-3-3A3,3,0,0,0,36.82,38.11Z"/><path class="cls-1" d="M3.51,22.57c-.7,0-1.37,0-2,0A1.63,1.63,0,0,1,0,20.94c0-2.2,0-4.39,0-6.59a1.67,1.67,0,0,1,1.71-1.63H3.51Z"/><path class="cls-1" d="M44.72,12.74c.71,0,1.4,0,2.08,0a1.63,1.63,0,0,1,1.4,1.6c0,2.2,0,4.39,0,6.59a1.67,1.67,0,0,1-1.7,1.64c-.58,0-1.17,0-1.78,0Z"/></g></g></svg>