<svg xmlns="http://www.w3.org/2000/svg" viewBox="0 0 29.19 48"><defs><style>.cls-1{fill:#fff;}</style></defs><g id="Layer_2" data-name="Layer 2"><g id="Layer_1-2" data-name="Layer 1"><path class="cls-1" d="M14.52,48H7.65c-1.28,0-1.85-.58-1.86-1.88,0-1.55,0-3.09,0-4.64a2.44,2.44,0,0,0-.68-1.76C3.53,38,2,36.18.39,34.4A1.5,1.5,0,0,1,0,33.77c-.1-.45.25-.81.78-.82q1.53,0,3.06,0a1.66,1.66,0,0,0,1.93-1.83c0-1.48,0-3,0-4.44a2.14,2.14,0,0,0-.59-1.52C3.59,23.36,2,21.55.4,19.75c-.26-.29-.53-.59-.33-1s.59-.44,1-.44c1,0,2,0,3,0a1.62,1.62,0,0,0,1.73-1.67c0-1.63,0-3.27,0-4.91a1.9,1.9,0,0,0-.48-1.07C3.74,8.83,2.13,7.05.54,5.26.44,5.15.29,5,.25,4.9S0,4.26.12,4.05a1,1,0,0,1,.76-.41c.93,0,1.86,0,2.8,0A1.92,1.92,0,0,0,5.79,1.71,2.84,2.84,0,0,1,6,.75,1.42,1.42,0,0,1,7.35,0H21.71a1.59,1.59,0,0,1,1.57,1.54A3.93,3.93,0,0,0,23.76,3a1.4,1.4,0,0,0,1.3.67h3.17c.38,0,.71,0,.89.43a.82.82,0,0,1-.24,1C27.27,6.82,25.67,8.64,24,10.44a2.57,2.57,0,0,0-.78,1.88c0,1.46,0,2.92,0,4.38a1.59,1.59,0,0,0,1.64,1.59q1.64,0,3.27,0c.38,0,.75,0,.94.42s0,.71-.28,1c-1.67,1.88-3.34,3.77-5,5.65a2.08,2.08,0,0,0-.56,1.48c0,1.44,0,2.88,0,4.33A1.62,1.62,0,0,0,25,32.94c1.1,0,2.21,0,3.32,0,.34,0,.7.05.75.42a1.25,1.25,0,0,1-.21.89c-.92,1.1-1.88,2.15-2.83,3.21-.75.86-1.51,1.72-2.28,2.57a1.93,1.93,0,0,0-.52,1.39c0,1.53,0,3.06,0,4.59s-.54,2-2,2Zm0-15.46A6.44,6.44,0,1,0,20.94,39,6.47,6.47,0,0,0,14.49,32.54Zm0-1.76a6.44,6.44,0,1,0-6.43-6.47A6.46,6.46,0,0,0,14.49,30.78Zm0-27.54A6.43,6.43,0,1,0,21,9.68,6.48,6.48,0,0,0,14.51,3.24Z"/></g></g></svg>