<svg xmlns="http://www.w3.org/2000/svg" viewBox="0 0 38.46 48"><defs><style>.cls-1{fill:#ffad00;}</style></defs><g id="Layer_2" data-name="Layer 2"><g id="Layer_1-2" data-name="Layer 1"><path class="cls-1" d="M34.9,5.51c-8-4-18.9-3-24.84,2.27C6.39,11.05,3.68,15,3,20.05c-.68,5.36,1.5,9.77,4.85,14,.52-2.61.87-5,1.48-7.3a29.76,29.76,0,0,1,11.85-17,16.82,16.82,0,0,1,1.44-.93c.87-.52,1.8-.76,2.4.26s.13,1.78-.87,2.39A26.08,26.08,0,0,0,13.45,24.08c-2.13,5.12-2.6,10.53-2.48,16a53.26,53.26,0,0,0,.53,5.64c.15,1.1.1,2-1.17,2.24S8.7,47.4,8.59,46.34c-.21-2.1-.36-4.22-.69-6.31a4.92,4.92,0,0,0-1.05-2.5C2.81,33.13,0,28.21,0,22.05,0,13,6.82,3.84,15.74,1.22a30,30,0,0,1,21,1.54c2,.89,2.17,1.47,1,3.42-2.06,3.49-2.35,7.49-3.23,11.32-.84,3.66-1.57,7.45-3.11,10.82C28.22,35.24,22.05,38,14.86,39c-1,.15-2-.33-1.93-1.39A2.38,2.38,0,0,1,14.46,36c10.43-1.93,14.68-6.09,16.6-16.4C32,14.83,32.52,10,34.9,5.51Z"/></g></g></svg>