<svg xmlns="http://www.w3.org/2000/svg" viewBox="0 0 54.02 48"><defs><style>.cls-1{fill:#fff;}</style></defs><g id="Layer_2" data-name="Layer 2"><g id="Layer_1-2" data-name="Layer 1"><path class="cls-1" d="M46.35,33.14,44.1,27.07a2.54,2.54,0,0,0-2.38-1.65H25.66a2.54,2.54,0,0,0-2.38,1.65l-2.22,6-.95.86a3.56,3.56,0,0,0-1.26,2.68V47.43a.61.61,0,0,0,.59.57h5.63a.57.57,0,0,0,.55-.57v-3.3H41.36v3.3a.57.57,0,0,0,.55.57h5.63a.61.61,0,0,0,.59-.57v-11A3.59,3.59,0,0,0,47,33.83Zm-22-5.69a1.4,1.4,0,0,1,1.34-.92H41.72a1.4,1.4,0,0,1,1.34.92l2,5.36H22.32Zm.2,19.45H20V44.13h4.56Zm18,0V44.13H47V46.9ZM47,43H20V36.61a2.42,2.42,0,0,1,.87-1.85l0,0,.88-.83H45.58l.63.68,0,0A2.41,2.41,0,0,1,47,36.39Z"/><path class="cls-1" d="M24.47,36.61H24A2.18,2.18,0,1,0,24,41h.49a2.18,2.18,0,0,0,0-4.35Zm0,3.24H24a1.07,1.07,0,1,1,0-2.14h.49a1.07,1.07,0,0,1,0,2.14Z"/><path class="cls-1" d="M43,36.61h-.48a2.18,2.18,0,1,0,0,4.35H43a2.18,2.18,0,1,0,0-4.35Zm0,3.24h-.48a1.07,1.07,0,1,1,0-2.14H43a1.07,1.07,0,0,1,0,2.14Z"/><path class="cls-1" d="M38.32,37.16a.54.54,0,0,0-.55-.55H29.21a.55.55,0,0,0-.55.55v3.18a.55.55,0,0,0,.55.55h8.56a.55.55,0,0,0,.55-.55Zm-1.1,2.62H29.76V37.71h7.46Z"/><path class="cls-1" d="M52.91,8.41l-.67-.7L50,1.65A2.54,2.54,0,0,0,47.61,0H31.55a2.54,2.54,0,0,0-2.38,1.65L27,7.65,26,8.51a3.56,3.56,0,0,0-1.25,2.54,2.61,2.61,0,0,1,1.1.72v-.58a2.49,2.49,0,0,1,.87-1.85l0,0,.89-.82H51.47l.63.68,0,0A2.48,2.48,0,0,1,52.92,11v6.65H28.21l.38,1,.07.08h1.75v2.76h-.08a2.93,2.93,0,0,1,0,.41v.7H31a.57.57,0,0,0,.55-.57v-3.3H47.25V22a.57.57,0,0,0,.55.57h5.63A.6.6,0,0,0,54,22V11A3.57,3.57,0,0,0,52.91,8.41Zm-24.7-1,2-5.37a1.44,1.44,0,0,1,1.34-.92H47.61A1.46,1.46,0,0,1,49,2l2,5.37ZM52.92,21.47H48.36V18.71h4.56Z"/><path class="cls-1" d="M5.61,23.31H5.13a2.18,2.18,0,1,0,0,4.35h.48a2.18,2.18,0,1,0,0-4.35Zm0,3.25H5.13a1.07,1.07,0,1,1,0-2.14h.48a1.07,1.07,0,0,1,0,2.14Z"/><path class="cls-1" d="M19.47,23.87a.56.56,0,0,0-.55-.56H10.36a.56.56,0,0,0-.56.56V27a.55.55,0,0,0,.56.55h8.56a.55.55,0,0,0,.55-.55Zm-1.1,2.62H10.91V24.42h7.46Z"/><path class="cls-1" d="M21,29.83v-.1H1.1V23.32A2.45,2.45,0,0,1,2,21.47l0,0,.88-.82H26.73l.62.67,0,0a2.48,2.48,0,0,1,.78,1.77v1.1h1.11v-1.1a3.56,3.56,0,0,0-1.12-2.56l-.66-.69-2.25-6.06a2.55,2.55,0,0,0-2.39-1.65h-16a2.53,2.53,0,0,0-2.38,1.65l-2.23,6-1,.87A3.52,3.52,0,0,0,0,23.32V34.13a.6.6,0,0,0,.59.58H6.22a.57.57,0,0,0,.55-.58V30.84H20.61ZM5.46,14.15a1.43,1.43,0,0,1,1.35-.92H22.86a1.43,1.43,0,0,1,1.35.92l2,5.37H3.47Zm.2,19.45H1.1V30.84H5.66Z"/><path class="cls-1" d="M30.46,11H30a2.18,2.18,0,1,0,0,4.35h.48a2.18,2.18,0,1,0,0-4.35Zm0,3.24H30a1.07,1.07,0,0,1,0-2.14h.48a1.07,1.07,0,0,1,0,2.14Z"/><path class="cls-1" d="M49,11h-.49a2.18,2.18,0,0,0,0,4.35H49A2.18,2.18,0,0,0,49,11Zm0,3.24h-.49a1.07,1.07,0,1,1,0-2.14H49a1.07,1.07,0,0,1,0,2.14Z"/><path class="cls-1" d="M44.32,11.55a.55.55,0,0,0-.55-.55H35.21a.54.54,0,0,0-.55.55v3.18a.55.55,0,0,0,.55.55h8.56a.55.55,0,0,0,.55-.55Zm-1.1,2.62H35.76V12.1h7.46Z"/></g></g></svg>